<svg xmlns="http://www.w3.org/2000/svg" xmlns:xlink="http://www.w3.org/1999/xlink" width="18.063" height="19.837" viewBox="0 0 18.063 19.837"><defs><clipPath id="a"><rect width="18.063" height="19.837" fill="none"/></clipPath></defs><g clip-path="url(#a)"><path d="M206.712,22.144h-.192a3.876,3.876,0,0,1-1.926-.5,3.927,3.927,0,0,1-.861-.662l-.006-.006-.024-.024a4.433,4.433,0,0,1-.509-.637,6.012,6.012,0,0,1-.91-2.733c-.025-.242-.041-1.249-.041-1.592a5.387,5.387,0,0,1,1.247-3.725A4,4,0,0,1,206.517,11h.167a4.005,4.005,0,0,1,3.03,1.268,5.387,5.387,0,0,1,1.247,3.725c0,.343-.016,1.351-.041,1.592a6.065,6.065,0,0,1-.9,2.731,4.428,4.428,0,0,1-.508.641l-.027.028a3.888,3.888,0,0,1-.857.663A3.843,3.843,0,0,1,206.712,22.144Zm-.194-10.466a3.34,3.34,0,0,0-2.528,1.049,4.729,4.729,0,0,0-1.068,3.265c0,.381.017,1.326.037,1.523a5.343,5.343,0,0,0,.8,2.427,3.757,3.757,0,0,0,.431.54l.024.024a3.251,3.251,0,0,0,.713.549,3.2,3.2,0,0,0,1.592.409h.19a3.171,3.171,0,0,0,1.582-.408,3.209,3.209,0,0,0,.707-.548l.026-.026a3.737,3.737,0,0,0,.426-.539,5.4,5.4,0,0,0,.793-2.428c.02-.194.038-1.152.038-1.523a4.729,4.729,0,0,0-1.068-3.265,3.342,3.342,0,0,0-2.53-1.049Z" transform="translate(-197.57 -11.058)" fill="#4b4b4b"/><path d="M28.84,465.984h-17.5a.34.34,0,0,1-.34-.34v-.033a26.529,26.529,0,0,1,.527-5.543,4.393,4.393,0,0,1,1.583-1.959,7.131,7.131,0,0,1,2.527-1.037.34.34,0,0,1,.345.124c.051.067.1.131.152.191A5.4,5.4,0,0,0,17.89,458.8a4.733,4.733,0,0,0,2.1.49h.219a4.7,4.7,0,0,0,2.094-.49,5.358,5.358,0,0,0,1.748-1.415c.048-.059.1-.122.148-.187a.34.34,0,0,1,.346-.126,7.136,7.136,0,0,1,2.525,1.037,4.394,4.394,0,0,1,1.583,1.959,26.54,26.54,0,0,1,.527,5.543v.033A.34.34,0,0,1,28.84,465.984Zm-17.159-.68H28.5a24.842,24.842,0,0,0-.471-4.972,3.732,3.732,0,0,0-1.344-1.665,6.251,6.251,0,0,0-2.08-.882l-.027.033a6.034,6.034,0,0,1-1.971,1.592,5.374,5.374,0,0,1-2.394.561h-.222a5.408,5.408,0,0,1-2.4-.56,6.076,6.076,0,0,1-1.98-1.589l-.031-.037a6.248,6.248,0,0,0-2.082.883,3.732,3.732,0,0,0-1.344,1.665A24.831,24.831,0,0,0,11.681,465.3Z" transform="translate(-11.058 -446.087)" fill="#4b4b4b"/></g></svg>