<svg xmlns="http://www.w3.org/2000/svg" xmlns:xlink="http://www.w3.org/1999/xlink" width="25.182" height="20.3" viewBox="0 0 25.182 20.3"><defs><clipPath id="a"><rect width="25.182" height="20.3" transform="translate(0 0)" fill="none"/></clipPath></defs><g transform="translate(0 0)" clip-path="url(#a)"><path d="M28.789,18.946H14.139l-2.53-9.817H31.32Zm-14.015-.82H28.153l2.109-8.177h-17.6Z" transform="translate(-6.46 -5.077)" fill="#4b4b4b"/><path d="M7.6,14.322,4.38,1.82H0V1H5.016L8.4,14.117Z" transform="translate(0 -0.75)" fill="#4b4b4b"/><path d="M18.546,37.9a2.388,2.388,0,1,1,2.389-2.388A2.391,2.391,0,0,1,18.546,37.9Zm0-3.957a1.568,1.568,0,1,0,1.569,1.569A1.57,1.57,0,0,0,18.546,33.941Z" transform="translate(-8.818 -17.847)" fill="#4b4b4b"/><path d="M40.049,37.9a2.388,2.388,0,1,1,2.389-2.388A2.391,2.391,0,0,1,40.049,37.9Zm0-3.957a1.568,1.568,0,1,0,1.569,1.569A1.57,1.57,0,0,0,40.049,33.941Z" transform="translate(-20.263 -17.847)" fill="#4b4b4b"/></g></svg>