<svg xmlns="http://www.w3.org/2000/svg" viewBox="0 0 226.77 56.69"><defs><style>.cls-1{fill:#c8ab7a;}</style></defs><g id="レイヤー_2" data-name="レイヤー 2"><g id="デザイン"><path class="cls-1" d="M141.73,5.15s-11.34.52-28.34.52S85,5.15,85,5.15V.52S96.38,0,113.39,0s28.34.52,28.34.52V5.15Z"/><path class="cls-1" d="M0,36H2.15L10.77,49.8h.15L19.54,36h2V56.12h-2.3V39.46h-.14L10.63,53h-.57L1.58,39.46H1.44V56.12H0Z"/><path class="cls-1" d="M30.65,46.06a10.34,10.34,0,1,1,20.68,0,10.34,10.34,0,1,1-20.68,0Zm18.24,0c0-5.6-3.73-9.33-7.9-9.33s-7.9,3.73-7.9,9.33S36.83,55.4,41,55.4,48.89,51.67,48.89,46.06Z"/><path class="cls-1" d="M59.81,36H62L74.32,53h.14V36H75.9V56.12H73.74L61.39,39.17h-.15V56.12H59.81Z"/><path class="cls-1" d="M92.55,36h1.87l8.47,20.11h-2.58L98.15,51H88L85.8,56.12H84.08Zm5,13.5L93.13,38.88H93L88.53,49.51Z"/><path class="cls-1" d="M114.25,37.44h-7V36h16.37l-.29,1.43h-6.75V56.12h-2.3Z"/><path class="cls-1" d="M131.49,36h13.93l-.29,1.43H133.78v7.62h8.48L142,46.49h-8.19v8.19h12.07v1.44H131.49Z"/><path class="cls-1" d="M154,36h2.29V54.68h11.49l-.28,1.44H154Z"/><path class="cls-1" d="M175.58,36h2.3V56.12h-2.3Z"/><path class="cls-1" d="M188.21,36h13.94l-.29,1.43H190.51v7.62H199l-.29,1.43h-8.19v8.19h12.07v1.44H188.21Z"/><path class="cls-1" d="M210.54,36h7c5,0,7.76,2.73,7.76,6.17A5.54,5.54,0,0,1,221,47.64v.15l5.74,8.33H224l-5.31-7.76h-5.89v7.76h-2.3Zm7,10.91c3.3,0,5.31-2,5.31-4.74s-2-4.74-5.31-4.74h-4.74v9.48Z"/></g></g></svg>