<svg xmlns="http://www.w3.org/2000/svg" width="23.581" height="19.161" viewBox="0 0 23.581 19.161"><path d="M82.416,117.611a13.672,13.672,0,0,0,13.766-13.766c0-.209,0-.418-.014-.625a9.843,9.843,0,0,0,2.414-2.5,9.657,9.657,0,0,1-2.779.761A4.855,4.855,0,0,0,97.929,98.8a9.7,9.7,0,0,1-3.072,1.174,4.843,4.843,0,0,0-8.245,4.413,13.736,13.736,0,0,1-9.971-5.055,4.842,4.842,0,0,0,1.5,6.458,4.8,4.8,0,0,1-2.2-.606v.061a4.84,4.84,0,0,0,3.881,4.743,4.83,4.83,0,0,1-2.185.083,4.844,4.844,0,0,0,4.52,3.36,9.708,9.708,0,0,1-6.008,2.075,9.849,9.849,0,0,1-1.152-.07,13.7,13.7,0,0,0,7.416,2.169" transform="translate(-75 -98.45)" fill="#717171"/></svg>